<?xml version="1.0" encoding="UTF-8" standalone="no"?>
<svg
   xmlns:dc="http://purl.org/dc/elements/1.1/"
   xmlns:cc="http://creativecommons.org/ns#"
   xmlns:rdf="http://www.w3.org/1999/02/22-rdf-syntax-ns#"
   xmlns:svg="http://www.w3.org/2000/svg"
   xmlns="http://www.w3.org/2000/svg"
   xmlns:sodipodi="http://sodipodi.sourceforge.net/DTD/sodipodi-0.dtd"
   xmlns:inkscape="http://www.inkscape.org/namespaces/inkscape"
   viewBox="0 0 512 512"
   version="1.1"
   id="svg3882"
   sodipodi:docname="check_green.svg"
   inkscape:version="0.92.4 (5da689c313, 2019-01-14)">
  <metadata
     id="metadata3888">
    <rdf:RDF>
      <cc:Work
         rdf:about="">
        <dc:format>image/svg+xml</dc:format>
        <dc:type
           rdf:resource="http://purl.org/dc/dcmitype/StillImage" />
        <dc:title></dc:title>
      </cc:Work>
    </rdf:RDF>
  </metadata>
  <defs
     id="defs3886" />
  <sodipodi:namedview
     pagecolor="#ffffff"
     bordercolor="#666666"
     borderopacity="1"
     objecttolerance="10"
     gridtolerance="10"
     guidetolerance="10"
     inkscape:pageopacity="0"
     inkscape:pageshadow="2"
     inkscape:window-width="1680"
     inkscape:window-height="998"
     id="namedview3884"
     showgrid="false"
     inkscape:zoom="1.1034733"
     inkscape:cx="-105.67813"
     inkscape:cy="186.04232"
     inkscape:window-x="-8"
     inkscape:window-y="-8"
     inkscape:window-maximized="1"
     inkscape:current-layer="svg3882" />
  <path
     d="M173.898 439.404l-166.4-166.4c-9.997-9.997-9.997-26.206 0-36.204l36.203-36.204c9.997-9.998 26.207-9.998 36.204 0L192 312.69 432.095 72.596c9.997-9.997 26.207-9.997 36.204 0l36.203 36.204c9.997 9.997 9.997 26.206 0 36.204l-294.4 294.401c-9.998 9.997-26.207 9.997-36.204-.001z"
     id="path3880"
     style="fill:#00ff00" />
  <path
     style="fill:#00ff00;stroke-width:0.64080101"
     d="m 186.79349,445.9395 c -1.93842,-0.43099 -4.82203,-1.44321 -6.40801,-2.24939 C 176.92657,441.9319 6.3147613,271.83052 3.8858714,267.71853 c -3.88750051,-6.58133 -4.48760119,-14.802 -1.6366312,-22.41991 1.3417099,-3.5851 2.8941981,-5.3078 22.9840678,-25.50392 25.724164,-25.86022 25.582036,-25.76016 36.590514,-25.76016 11.589359,0 5.642098,-5.05311 71.946338,61.1295 L 191.92581,313.213 313.51484,191.71736 c 66.87397,-66.8226 122.5983,-122.07785 123.83184,-122.789441 4.44825,-2.566049 8.78075,-3.545533 14.33286,-3.240342 9.3072,0.511605 9.99802,1.012544 33.30201,24.148398 11.22046,11.139505 21.19644,21.407075 22.16886,22.816845 3.1084,4.50641 4.21079,8.38499 4.18905,14.73842 -0.0177,5.18667 -0.23441,6.21874 -2.1524,10.25282 -2.05239,4.31676 -7.78019,10.13143 -152.1705,154.47847 -163.0327,162.98384 -151.92753,152.3537 -160.88894,154.00666 -4.49762,0.8296 -4.77518,0.82397 -9.33413,-0.18969 z"
     id="path3890"
     inkscape:connector-curvature="0" />
  <path
     style="fill:#00ff00;stroke-width:0.05663934"
     d="M 117.65169,239.02989 C 94.503184,215.9319 87.650724,209.19389 81.968909,203.9431 c -6.906177,-6.38228 -10.408816,-8.91898 -13.369168,-9.68227 -1.296604,-0.33432 -1.694768,-0.34915 -7.134274,-0.2658 -3.27194,0.0501 -4.383396,0.10452 -5.542476,0.27116 -4.082292,0.5869 -7.354511,2.70747 -14.309613,9.2734 -3.75738,3.54713 -20.408471,20.18941 -28.231565,28.21662 -1.715071,1.75982 -3.379254,3.4675 -3.6981835,3.79484 l -0.5798725,0.59516 -6.807e-4,-0.45333 -6.808e-4,-0.45333 17.7422735,-17.73446 c 9.758251,-9.75395 18.021034,-17.97094 18.361741,-18.25997 2.343322,-1.98793 4.895097,-3.48122 7.788535,-4.55781 1.880837,-0.69983 4.101619,-1.2047 6.403186,-1.45571 0.873007,-0.0952 3.902439,-0.0955 4.814344,-5.2e-4 5.369262,0.55948 10.150172,2.58549 14.191723,6.01403 0.340703,0.28902 12.433016,12.33561 26.871802,26.77019 l 26.25233,26.24469 -0.31151,-0.003 -0.31152,-0.003 -13.25361,-13.22468 z"
     id="path3892"
     inkscape:connector-curvature="0" />
  <path
     style="fill:#00ff00;stroke-width:0.05663934"
     d="m 13.759429,279.22585 c -7.3405254,-7.35376 -7.7368558,-7.77094 -8.9024337,-9.37075 -2.8914078,-3.9686 -4.58033583,-8.84214 -4.79191791,-13.82748 -0.04538316,-1.06932 -0.0075061,-2.83675 0.07688282,-3.58753 0.37538209,-3.33962 1.12025229,-5.95916 2.49364649,-8.76959 1.3332195,-2.72822 2.7334132,-4.656 5.1628936,-7.10824 l 1.2625567,-1.27438 0.00105,0.46648 0.00105,0.46648 -0.554894,0.58135 c -2.660782,2.78761 -4.558215,5.09746 -5.4103795,6.58633 -0.8879417,1.55138 -1.8227485,4.4956 -2.26989177,7.14912 -0.27256222,1.61749 -0.33838591,2.45926 -0.34217123,4.37577 -0.005497,2.78311 0.27191262,4.82349 0.9893965,7.27712 0.6992846,2.3914 1.9527935,5.06787 2.8685068,6.12479 1.5090683,1.74177 6.8716282,7.31383 14.4795362,15.0452 l 2.99575,3.04436 h -0.446733 -0.446733 z"
     id="path3894"
     inkscape:connector-curvature="0" />
  <path
     style="fill:#00ff00;stroke-width:0.05663934"
     d="m 45.017477,310.47939 -24.04335,-24.0434 h 0.427797 0.427796 l 3.760662,3.809 c 7.108136,7.19949 17.153374,17.31329 30.574808,30.78348 l 13.445478,13.49432 h -0.27492 -0.27492 z"
     id="path3896"
     inkscape:connector-curvature="0" />
  <path
     style="fill:#00ff00;stroke-width:0.02831967"
     d="m 84.439274,349.91265 -15.376464,-15.37648 0.282089,-0.008 0.282089,-0.008 8.439262,8.4274 c 4.641594,4.63507 11.580303,11.55817 15.419352,15.38466 l 6.980088,6.95726 h -0.32498 -0.324972 z"
     id="path3898"
     inkscape:connector-curvature="0" />
  <path
     style="fill:#00ff00;stroke-width:0.02002503"
     d="m 109.88323,375.37047 -10.072056,-10.07208 0.329886,-0.006 0.32989,-0.006 3.99499,3.97498 c 2.19725,2.18624 5.47284,5.44328 7.2791,7.23787 3.19333,3.17269 4.59321,4.56404 7.56214,7.51604 l 1.43448,1.4263 h -0.39319 -0.39318 z"
     id="path3900"
     inkscape:connector-curvature="0" />
  <path
     style="fill:#00ff00;stroke-width:0.02002503"
     d="m 131.73992,397.22301 -11.77471,-11.77472 h 0.39629 0.39629 l 1.48606,1.47777 c 3.20873,3.19084 13.23833,13.12163 19.1533,18.96459 1.72081,1.69988 3.12875,3.09437 3.12875,3.09888 0,0.005 -0.22753,0.008 -0.50564,0.008 h -0.50563 z"
     id="path3902"
     inkscape:connector-curvature="0" />
  <path
     style="fill:#00ff00;stroke-width:0.02002503"
     d="m 176.61967,441.75576 c -0.65713,-0.49663 -1.23738,-0.978 -1.8721,-1.55305 -0.17622,-0.15966 -5.74969,-5.71813 -12.38548,-12.35216 l -12.06508,-12.06188 0.57071,7.6e-4 0.57071,7.6e-4 1.14229,1.12562 c 1.01915,1.00427 3.67457,3.61306 6.55734,6.44217 8.6107,8.45043 15.25981,14.8827 19.00794,18.38807 l 0.29441,0.27534 -0.73503,-3e-4 -0.73503,-3e-4 z"
     id="path3904"
     inkscape:connector-curvature="0" />
  <path
     style="fill:#00ff00;stroke-width:0.02831967"
     d="m 146.92749,412.4033 -3.38412,-3.3842 0.43184,-0.005 c 0.2375,-0.003 0.46267,-0.006 0.50036,-0.007 0.0539,-10e-4 0.7615,0.68119 3.32048,3.2032 1.78857,1.76274 3.33442,3.28881 3.43521,3.39128 l 0.18326,0.18631 h -0.55146 -0.55146 z"
     id="path3906"
     inkscape:connector-curvature="0" />
  <path
     style="fill:#00ff00;stroke-width:0.02831967"
     d="m 190.65376,446.85382 c -4.74784,-0.25201 -9.35714,-1.82603 -13.21113,-4.51143 l -0.41063,-0.28613 0.70799,-0.0142 0.70799,-0.0142 0.35479,0.32568 c 1.03651,0.95146 1.41858,1.26125 1.77802,1.44163 1.30569,0.65522 4.04206,1.62564 5.7967,2.05572 0.21806,0.0534 0.77879,0.17975 1.24607,0.28066 3.6224,0.78227 4.18731,0.79038 7.9295,0.11391 0.56073,-0.10137 1.42094,-0.23497 1.91158,-0.29689 1.04523,-0.13192 1.2883,-0.17162 1.72898,-0.28237 1.3816,-0.34724 2.80451,-1.15972 5.0111,-2.86137 2.6517,-2.04489 6.78092,-5.73634 12.41341,-11.09738 0.72944,-0.69428 1.35414,-1.28493 1.38821,-1.31254 0.0552,-0.0448 0.11967,-0.0494 0.59296,-0.0425 l 0.53101,0.008 -4.80783,4.80215 c -2.6443,2.64119 -4.98623,4.9613 -5.20429,5.15581 -1.8337,1.63565 -3.7843,2.95295 -5.8905,3.97805 -3.13689,1.52674 -6.44628,2.37767 -9.95436,2.55952 -0.62827,0.0326 -1.98828,0.0316 -2.61957,-0.002 z"
     id="path3908"
     inkscape:connector-curvature="0" />
  <path
     style="fill:#00ff00;stroke-width:0.02831967"
     d="m 218.12993,430.27187 c 0.0464,-0.0444 0.38997,-0.37257 0.76343,-0.72924 4.56424,-4.35903 11.18223,-10.82294 20.38761,-19.91294 l 1.72792,-1.70626 h 0.27041 0.27042 l -11.21456,11.21459 -11.21456,11.21459 h -0.53754 -0.53755 z"
     id="path3910"
     inkscape:connector-curvature="0" />
  <path
     style="fill:#00ff00;stroke-width:0.01415984"
     d="m 241.2867,407.92313 -0.27418,-0.007 1.34324,-1.33092 c 6.60236,-6.54179 10.87216,-10.78091 14.04511,-13.94418 l 1.13328,-1.12982 0.22256,0.004 0.22256,0.004 -8.2092,8.20563 -8.2092,8.20562 z"
     id="path3912"
     inkscape:connector-curvature="0" />
  <path
     style="fill:#00ff00;stroke-width:0.02002503"
     d="m 260.29236,388.77317 c 1.51182,-1.50602 4.37712,-4.36259 6.36732,-6.34794 l 3.61855,-3.60972 h 0.1962 0.19621 l -6.34791,6.34793 -6.34791,6.34794 h -0.21561 -0.21561 z"
     id="path3914"
     inkscape:connector-curvature="0" />
  <path
     style="fill:#00ff00;stroke-width:0.01415984"
     d="m 270.48673,378.80955 -0.19368,-0.004 3.854,-3.84695 c 2.11969,-2.11582 4.58062,-4.57222 5.46873,-5.45865 l 1.61474,-1.61171 0.18714,0.004 0.18715,0.004 -5.4622,5.45862 -5.4622,5.45862 z"
     id="path3916"
     inkscape:connector-curvature="0" />
  <path
     style="fill:#00ff00;stroke-width:0.02002503"
     d="m 290.56915,358.56334 9.33166,-9.32041 0.17021,-1.3e-4 0.1702,-1.4e-4 -9.32163,9.32165 -9.32164,9.32166 -0.18023,-10e-4 -0.18024,-0.001 z"
     id="path3918"
     inkscape:connector-curvature="0" />
  <path
     style="fill:#00ff00;stroke-width:0.00500626"
     d="m 305.05003,344.08073 3.2791,-3.2791 h 0.18523 0.18523 l -3.27909,3.2791 -3.2791,3.2791 h -0.18523 -0.18523 z"
     id="path3920"
     inkscape:connector-curvature="0" />
  <path
     style="fill:#00ff00;stroke-width:0.00500626"
     d="m 298.6385,350.84844 c 0.88042,-0.88042 1.60075,-1.60244 1.60075,-1.60451 0,-0.002 -0.076,-0.004 -0.16896,-0.004 h -0.16897 l -0.90362,0.90363 c -0.49699,0.497 -0.90587,0.90363 -0.90863,0.90363 -0.003,0 0.82403,-0.82904 1.83729,-1.8423 l 1.8423,-1.84231 h 0.18523 0.18523 l -2.54317,2.54318 c -1.39875,1.39875 -2.54656,2.54318 -2.55069,2.54318 -0.004,0 0.71283,-0.72034 1.59324,-1.60075 z"
     id="path3922"
     inkscape:connector-curvature="0" />
</svg>
