<?xml version="1.0" encoding="UTF-8" standalone="no"?>
<svg
   xmlns:dc="http://purl.org/dc/elements/1.1/"
   xmlns:cc="http://creativecommons.org/ns#"
   xmlns:rdf="http://www.w3.org/1999/02/22-rdf-syntax-ns#"
   xmlns:svg="http://www.w3.org/2000/svg"
   xmlns="http://www.w3.org/2000/svg"
   xmlns:sodipodi="http://sodipodi.sourceforge.net/DTD/sodipodi-0.dtd"
   xmlns:inkscape="http://www.inkscape.org/namespaces/inkscape"
   viewBox="0 0 512 512"
   version="1.1"
   id="svg3748"
   sodipodi:docname="check_white_2.svg"
   inkscape:version="0.92.4 (5da689c313, 2019-01-14)">
  <metadata
     id="metadata3754">
    <rdf:RDF>
      <cc:Work
         rdf:about="">
        <dc:format>image/svg+xml</dc:format>
        <dc:type
           rdf:resource="http://purl.org/dc/dcmitype/StillImage" />
        <dc:title></dc:title>
      </cc:Work>
    </rdf:RDF>
  </metadata>
  <defs
     id="defs3752" />
  <sodipodi:namedview
     pagecolor="#ffffff"
     bordercolor="#666666"
     borderopacity="1"
     objecttolerance="10"
     gridtolerance="10"
     guidetolerance="10"
     inkscape:pageopacity="0"
     inkscape:pageshadow="2"
     inkscape:window-width="1680"
     inkscape:window-height="998"
     id="namedview3750"
     showgrid="false"
     inkscape:zoom="0.70710678"
     inkscape:cx="67.422466"
     inkscape:cy="400.40031"
     inkscape:window-x="-8"
     inkscape:window-y="-8"
     inkscape:window-maximized="1"
     inkscape:current-layer="svg3748" />
  <path
     d="M173.898 439.404l-166.4-166.4c-9.997-9.997-9.997-26.206 0-36.204l36.203-36.204c9.997-9.998 26.207-9.998 36.204 0L192 312.69 432.095 72.596c9.997-9.997 26.207-9.997 36.204 0l36.203 36.204c9.997 9.997 9.997 26.206 0 36.204l-294.4 294.401c-9.998 9.997-26.207 9.997-36.204-.001z"
     id="path3746" />
  <path
     style="fill:#ffffff"
     d="M 181.31489,443.88422 C 177.84315,442.14798 157.29108,422.07067 90.172409,354.84717 10.838588,275.38944 3.3881014,267.6743 2.0415917,263.58583 c -1.87667725,-5.69824 -1.86956036,-11.6887 0.020611,-17.3486 1.2920107,-3.86879 4.352069,-7.35465 22.8822943,-26.06641 24.522424,-24.76264 26.729785,-26.33898 36.79673,-26.27749 3.923533,0.0239 7.726505,0.63531 9.968524,1.60251 2.609457,1.1257 19.93645,17.85206 61.852629,59.70856 l 58.2277,58.14479 121.65885,-121.56897 C 399.97758,105.31549 436.25331,69.640918 439.07488,68.236117 c 5.60798,-2.792093 12.22886,-3.283109 18.75657,-1.391021 5.17017,1.498596 6.17104,2.351884 26.96981,22.992709 24.73486,24.547045 26.36987,26.830795 26.37653,36.842255 0.003,4.65518 -0.54129,7.54963 -2.0453,10.87475 -1.7129,3.78694 -26.63981,29.12054 -151.76892,154.24501 -165.49983,165.4937 -153.48486,154.29918 -165.62704,154.31727 -4.51853,0.006 -7.0113,-0.52735 -10.42164,-2.23287 z"
     id="path3756"
     inkscape:connector-curvature="0" />
  <path
     style="fill:#ffffff;stroke-width:0.05663934"
     d="m 190.00659,446.80338 c -5.47845,-0.46243 -10.49634,-2.54934 -14.66959,-6.10099 -0.31152,-0.26511 -8.50067,-8.4123 -18.19811,-18.10485 l -17.63171,-17.62282 0.0169,-0.40019 0.0169,-0.4002 5.29577,5.24034 c 22.62041,22.38358 32.89615,32.15422 35.94849,34.18145 0.9386,0.62338 3.1235,1.51805 4.66192,1.90895 1.62272,0.41233 2.89387,0.55317 5.6073,0.62126 1.13703,0.0285 2.51337,0.082 3.05852,0.11876 1.68219,0.11351 2.82871,-10e-4 4.04971,-0.40617 0.63496,-0.21045 2.00853,-0.88115 2.83197,-1.38281 5.46296,-3.32821 15.19054,-12.17614 37.85786,-34.43442 7.98317,-7.83912 7.15766,-7.05293 7.40558,-7.05293 0.21545,0 0.0117,0.20627 -18.24651,18.47034 -10.15541,10.15869 -18.77687,18.74586 -19.15879,19.0826 -3.92121,3.4574 -8.72797,5.57854 -14.06015,6.20448 -0.91268,0.10714 -3.86678,0.15479 -4.78602,0.0772 z"
     id="path3758"
     inkscape:connector-curvature="0" />
  <path
     style="fill:#ffffff;stroke-width:0.05663934"
     d="m 402.30673,102.44704 c 16.79072,-16.793232 30.8074,-30.77453 31.14817,-31.069553 4.05153,-3.507636 8.80802,-5.543928 14.36152,-6.148286 0.87038,-0.09472 3.84828,-0.09508 4.75771,-5.77e-4 5.23418,0.543909 9.98261,2.502393 13.85034,5.712564 1.14449,0.949903 2.26316,2.04785 11.34316,11.132902 l 8.56985,8.574631 -0.0173,0.315032 -0.0173,0.315031 -5.32409,-5.267837 c -16.3748,-16.201759 -18.11604,-17.666802 -22.62742,-19.038288 -5.60542,-1.704079 -11.29683,-1.700071 -16.31213,0.01149 -1.35745,0.463251 -2.72231,1.050774 -3.22844,1.389721 -2.37527,1.590673 -15.78716,14.486614 -41.77152,40.16458 -5.23089,5.16921 -22.89667,22.68722 -23.95755,23.75716 l -0.67879,0.68457 h -0.31238 -0.31239 z"
     id="path3760"
     inkscape:connector-curvature="0" />
  <path
     style="fill:#ffffff;stroke-width:0.02831967"
     d="m 121.08947,242.75511 c -13.27645,-13.22773 -25.602714,-25.37323 -32.671186,-32.19205 -0.677548,-0.65362 -1.359344,-1.31279 -1.515103,-1.46484 l -0.283196,-0.27644 0.750479,-3.6e-4 0.750479,-3.5e-4 18.549367,18.54938 18.54937,18.54939 h -0.47692 -0.47691 z"
     id="path3762"
     inkscape:connector-curvature="0" />
  <path
     style="fill:#ffffff;stroke-width:0.04005006"
     d="m 144.05024,265.65259 -19.72466,-19.69323 0.43916,-0.0114 0.43915,-0.0114 19.70602,19.70603 19.70603,19.70602 -0.42052,-0.001 -0.42052,-10e-4 z"
     id="path3764"
     inkscape:connector-curvature="0" />
  <path
     style="fill:#ffffff;stroke-width:0.05663934"
     d="m 177.82779,299.36116 -13.96152,-13.96161 h 0.39639 0.39639 l 13.66429,13.66421 13.66429,13.6642 20.36184,-20.36177 c 19.42998,-19.42994 20.36183,-20.35271 20.36183,-20.16354 0,0.18843 -1.01209,1.21032 -20.461,20.65917 l -20.46099,20.46094 z"
     id="path3766"
     inkscape:connector-curvature="0" />
  <path
     style="fill:#ffffff;stroke-width:0.05663934"
     d="m 232.54443,272.50602 c 0,-0.0301 0.0382,-0.0865 0.085,-0.12525 0.11942,-0.0991 0.10952,-0.23138 -0.0142,-0.18915 -0.0545,0.0186 11.67801,-11.74657 26.07229,-26.14486 l 26.1714,-26.1787 0.21223,0.0182 0.21223,0.0182 -26.36947,26.32817 c -14.50321,14.48049 -26.36948,26.30353 -26.36948,26.27343 z"
     id="path3768"
     inkscape:connector-curvature="0" />
  <path
     style="fill:#ffffff;stroke-width:0.04005006"
     d="m 30.909764,213.78652 v -0.36459 l 5.957446,-5.97616 c 3.276596,-3.28689 6.392377,-6.39409 6.923958,-6.90489 2.274377,-2.18546 4.139814,-3.51353 6.723101,-4.78643 2.186529,-1.07739 4.252368,-1.76774 6.588353,-2.20165 l 0.660942,-0.12277 4.16509,0.0109 4.16509,0.0109 0.71926,0.15261 c 2.431274,0.51584 4.275079,1.14972 6.369601,2.18979 2.207315,1.09607 4.180245,2.45429 5.947434,4.09438 0.275344,0.25554 2.40197,2.36762 4.725835,4.69352 l 4.22521,4.2289 h -0.736 -0.736 l -0.845906,-0.81375 c -6.804533,-6.54593 -11.454654,-10.76253 -13.310293,-12.06941 -0.503842,-0.35484 -0.82383,-0.50994 -1.594588,-0.77288 -1.754989,-0.59872 -4.081626,-1.00511 -6.927257,-1.20998 -0.945756,-0.0681 -4.543548,-0.0682 -5.366708,-1.7e-4 -3.544211,0.29291 -5.824828,1.09927 -8.911911,3.15096 -3.513565,2.33514 -7.89016,6.25337 -15.989216,14.31467 l -2.753441,2.7406 z"
     id="path3770"
     inkscape:connector-curvature="0" />
  <path
     style="fill:#ffffff;stroke-width:0.04005006"
     d="m 0.83351896,261.31634 c -0.0877936,-0.30663 -0.28429365,-1.21012 -0.39850762,-1.83229 -0.65197375,-3.5516 -0.52910536,-7.27899 0.35645273,-10.81352 0.95916203,-3.82831 2.77998123,-7.3531 5.36994543,-10.39528 0.3584,-0.42098 4.0976365,-4.18857 12.6085225,-12.70414 l 12.099023,-12.10567 0.01161,0.34361 0.01161,0.34362 -4.277239,4.31274 c -13.062902,13.17135 -17.8073368,18.1203 -20.7408853,21.63494 -2.2824223,2.73454 -3.2775934,4.37639 -3.9565719,6.52763 -1.47732287,4.68067 -1.69335867,9.63782 -0.6238906,14.31577 0.0652,0.28519 0.1185455,0.533 0.1185455,0.55069 0,0.0177 -0.116643,0.0322 -0.2592066,0.0322 H 0.89372045 Z"
     id="path3772"
     inkscape:connector-curvature="0" />
  <path
     style="fill:#ffffff;stroke-width:0.01415984"
     d="m 61.001305,193.43327 c -1.730215,-0.004 -3.14933,-0.0113 -3.153588,-0.0155 -0.01615,-0.0162 0.811498,-0.12562 1.385565,-0.18327 0.839322,-0.0843 1.366125,-0.11271 2.280138,-0.12304 1.154508,-0.013 2.08962,0.0333 3.207203,0.15892 0.311405,0.035 1.034396,0.13491 1.161106,0.16043 0.07052,0.0142 -0.09785,0.0143 -4.880424,0.002 z"
     id="path3774"
     inkscape:connector-curvature="0" />
  <path
     style="fill:#ffffff;stroke-width:0.05663934"
     d="M 26.852795,292.3008 C 15.743719,281.18745 6.418002,271.81596 6.1289798,271.47525 3.9800758,268.94207 2.3777911,266.09669 1.3427657,262.97578 1.146473,262.3839 0.96874229,261.8168 0.94780845,261.71556 l -0.0380615,-0.18408 H 1.1669411 c 0.2551679,0 0.2576792,0.002 0.3187389,0.24072 0.3182764,1.24486 0.6231068,2.14379 0.9410791,2.7752 1.6566786,3.28973 8.8125879,10.93975 34.2013209,36.56294 4.237598,4.27673 8.504434,8.59053 9.481858,9.58621 l 1.777135,1.81034 h -0.417978 -0.417979 z"
     id="path3776"
     inkscape:connector-curvature="0" />
  <path
     style="fill:#ffffff;stroke-width:0.05663934"
     d="m 82.822449,348.27841 -35.76771,-35.76774 h 0.427013 0.427014 l 12.968173,13.0117 c 7.132496,7.15644 23.199085,23.25192 35.70353,35.76774 l 22.735351,22.75605 h -0.36283 -0.36283 z"
     id="path3778"
     inkscape:connector-curvature="0" />
  <path
     style="fill:#ffffff;stroke-width:0.04005006"
     d="m 129.04206,394.51082 -10.43133,-10.43164 0.35874,-0.0117 0.35874,-0.0117 6.40035,6.36796 c 3.5202,3.50238 8.06691,8.02603 10.1038,10.05257 l 3.70344,3.6846 -0.0312,0.39077 -0.0312,0.39078 z"
     id="path3780"
     inkscape:connector-curvature="0" />
  <path
     style="fill:#ffffff;stroke-width:0.04005006"
     d="m 334.88205,169.83718 26.23471,-26.23471 0.28418,0.0119 0.28416,0.0119 -7.4951,7.46806 c -4.12231,4.10744 -15.95032,15.90769 -26.28448,26.22278 l -18.78938,18.75472 h -0.2344 -0.2344 z"
     id="path3782"
     inkscape:connector-curvature="0" />
  <path
     style="fill:#ffffff;stroke-width:0.05663934"
     d="m 361.40434,143.58009 -0.251,-0.0179 5.27756,-5.27786 5.27757,-5.27786 0.29138,0.0202 0.29139,0.0202 -4.15684,4.16059 c -2.28626,2.28833 -4.67934,4.66236 -5.31795,5.27562 l -1.1611,1.11501 z"
     id="path3784"
     inkscape:connector-curvature="0" />
  <path
     style="fill:#ffffff;stroke-width:0.01415984"
     d="m 285.23907,219.89727 c -0.0268,-0.006 -0.12091,-0.0154 -0.20908,-0.0209 -0.0882,-0.006 -0.16301,-0.0144 -0.16633,-0.0198 -0.003,-0.005 2.83405,-2.84981 6.30524,-6.321 l 6.31126,-6.31125 0.24745,0.004 0.24745,0.004 -6.34361,6.33799 -6.3436,6.33799 z"
     id="path3786"
     inkscape:connector-curvature="0" />
  <path
     style="fill:#ffffff;stroke-width:0.02002503"
     d="m 482.7889,165.87451 c 0.18611,-0.19005 1.19445,-1.21966 2.24075,-2.28802 12.13023,-12.38591 18.95342,-19.57392 22.04515,-23.22382 l 0.31799,-0.3754 h 0.49803 c 0.27392,0 0.49803,0.005 0.49803,0.0115 0,0.0186 -0.45032,0.73379 -0.66735,1.05984 -0.69749,1.0479 -1.46319,2.03087 -2.36321,3.03379 -0.14331,0.1597 -5.17233,5.20376 -11.17559,11.20901 l -10.91502,10.91865 h -0.40858 -0.40858 z"
     id="path3788"
     inkscape:connector-curvature="0" />
  <path
     style="fill:#ffffff;stroke-width:0.04005006"
     d="m 443.15488,205.91463 c 0.15213,-0.1597 3.34048,-3.37221 7.08522,-7.13892 9.53899,-9.59496 12.05583,-12.13004 16.58122,-16.70137 4.46449,-4.5098 11.75376,-11.89635 14.07852,-14.26641 l 1.54101,-1.57102 0.40048,-9.4e-4 0.40049,-9.4e-4 -19.98495,19.98499 -19.98495,19.98498 h -0.19683 -0.19682 z"
     id="path3790"
     inkscape:connector-curvature="0" />
  <path
     style="fill:#ffffff;stroke-width:0.01415984"
     d="m 297.65036,207.21642 -0.15231,-0.008 4.92452,-4.92442 4.92452,-4.92442 0.2533,0.004 0.2533,0.004 -4.93964,4.93116 -4.93965,4.93116 -0.0859,-0.003 c -0.0472,-0.002 -0.15441,-0.006 -0.23817,-0.0106 z"
     id="path3792"
     inkscape:connector-curvature="0" />
  <path
     style="fill:#ffffff;stroke-width:0.02002503"
     d="m 307.99295,196.7196 0.64057,-0.6408 h 0.25031 0.25031 l -0.64056,0.6408 -0.64057,0.6408 h -0.25031 -0.25031 z"
     id="path3794"
     inkscape:connector-curvature="0" />
  <path
     style="fill:#ffffff;stroke-width:0.08010013"
     d="m 507.51758,139.92834 c 0,-0.0224 0.28781,-0.41013 0.63957,-0.86159 0.72519,-0.93071 1.05278,-1.51475 1.5224,-2.71422 0.67764,-1.73075 1.14236,-3.69041 1.3762,-5.80319 0.14487,-1.30884 0.14519,-6.5805 4.9e-4,-7.72967 -0.68377,-5.42985 -2.98453,-9.0842 -11.21986,-17.82072 -1.80235,-1.91204 -9.02313,-9.277842 -11.93625,-12.175982 -1.40563,-1.398401 -1.52898,-1.543782 -1.52898,-1.802123 0,-0.269553 0.37588,0.09455 9.21917,8.930374 5.07054,5.066261 9.52519,9.551701 9.89922,9.967641 1.54399,1.71699 2.71093,3.46304 3.83077,5.73185 0.85681,1.73591 1.3499,3.04781 1.80109,4.79196 0.59574,2.30289 0.80208,3.97509 0.80089,6.49062 -0.002,4.32649 -0.93805,8.11523 -2.95137,11.94646 l -0.5472,1.0413 -0.45307,0.024 c -0.24919,0.0132 -0.45307,0.006 -0.45307,-0.0167 z"
     id="path3796"
     inkscape:connector-curvature="0" />
  <path
     style="fill:#ffffff;stroke-width:0.01001252"
     d="m 267.41526,381.71215 c 0,-0.002 1.02391,-1.02317 2.27535,-2.27012 1.25144,-1.24694 4.2094,-4.19681 6.57325,-6.55526 l 4.2979,-4.28808 h 0.16768 0.16767 l -6.55819,6.5582 -6.5582,6.55819 h -0.18273 c -0.1005,0 -0.18273,-10e-4 -0.18273,-0.003 z"
     id="path3798"
     inkscape:connector-curvature="0" />
  <path
     style="fill:#ffffff;stroke-width:0.01001252"
     d="m 252.78397,396.25247 c 0,-0.002 0.43818,-0.43755 0.97372,-0.96855 2.90236,-2.8777 9.13548,-9.07132 11.26236,-11.19101 l 0.95697,-0.95373 h 0.18946 0.18945 l -6.55819,6.55819 -6.55819,6.5582 h -0.22779 c -0.12528,0 -0.22779,-10e-4 -0.22779,-0.003 z"
     id="path3800"
     inkscape:connector-curvature="0" />
  <path
     style="fill:#ffffff;stroke-width:0.01001252"
     d="m 240.4337,409.0116 c 2.84323,-2.85439 3.48786,-3.50402 4.31974,-4.35323 1.25604,-1.28223 1.54939,-1.60078 1.53919,-1.67147 -0.003,-0.0197 -0.008,-0.0218 -0.10803,-0.0412 -0.036,-0.007 -0.10617,0.0372 -0.23529,0.14851 -0.29357,0.25299 -1.11294,1.04347 -2.74622,2.64938 -0.28238,0.27765 -0.51573,0.50251 -0.51855,0.49968 -0.003,-0.003 0.4602,-0.46415 1.02895,-1.02516 1.93846,-1.91212 4.30597,-4.2513 5.73426,-5.66566 l 1.42586,-1.41195 0.24623,-0.003 0.24624,-0.003 -6.5582,6.55832 c -5.05357,5.05367 -6.56364,6.55832 -6.58196,6.55832 -0.0184,0 0.47685,-0.50258 2.20778,-2.2403 z"
     id="path3802"
     inkscape:connector-curvature="0" />
  <path
     style="fill:#ffffff;stroke-width:0.01001252"
     d="m 250.88926,398.13257 c 0,-0.002 0.42466,-0.42523 0.94368,-0.93947 l 0.94368,-0.93497 0.22956,0.003 0.22956,0.003 -0.93355,0.93359 -0.93355,0.93359 -0.23969,0.003 c -0.13183,10e-4 -0.23969,6.4e-4 -0.23969,-0.002 z"
     id="path3804"
     inkscape:connector-curvature="0" />
  <path
     style="fill:#ffffff;stroke-width:0.00707992"
     d="m 394.90315,254.42365 1.9e-4,-0.17346 4.27077,-4.27494 4.27077,-4.27495 0.17524,0.002 0.17524,0.002 -4.4462,4.44619 -4.4462,4.44618 z"
     id="path3806"
     inkscape:connector-curvature="0" />
  <path
     style="fill:#ffffff;stroke-width:0.01001252"
     d="m 332.65354,316.65213 v -0.13267 l 6.42554,-6.42553 6.42553,-6.42553 h 0.1652 0.1652 l -6.55819,6.5582 c -6.04728,6.04728 -6.56073,6.5582 -6.59073,6.5582 h -0.0325 z"
     id="path3808"
     inkscape:connector-curvature="0" />
  <path
     style="fill:#ffffff;stroke-width:0.02831967"
     d="m 304.06324,345.27194 v -0.14159 l 13.89966,-13.89964 13.89965,-13.89964 0.13303,0.009 0.13303,0.009 -14.03268,14.03239 -14.03269,14.03238 z"
     id="path3810"
     inkscape:connector-curvature="0" />
  <path
     style="fill:#ffffff;stroke-width:0.00500626"
     d="m 375.28797,274.04653 v -0.17022 l 2.61208,-2.61208 2.61209,-2.61208 0.16889,10e-4 0.1689,0.001 -2.78098,2.78098 -2.78098,2.78097 z"
     id="path3812"
     inkscape:connector-curvature="0" />
  <path
     style="fill:#ffffff;stroke-width:0.00390625"
     d="m 363.51284,285.82244 v -0.16797 l 2.29009,-2.29008 2.29008,-2.29008 0.16695,10e-4 0.16695,10e-4 -2.45703,2.45703 -2.45704,2.45703 z"
     id="path3814"
     inkscape:connector-curvature="0" />
  <path
     style="fill:#ffffff;stroke-width:0.00390625"
     d="m 368.26056,281.07303 -0.167,-0.002 1.32525,-1.32524 1.32524,-1.32524 0.16891,0.001 0.1689,10e-4 -1.32715,1.32617 -1.32715,1.32618 z"
     id="path3816"
     inkscape:connector-curvature="0" />
  <path
     style="fill:#ffffff;stroke-width:0.00390625"
     d="m 370.80353,278.41842 -0.0565,-0.001 2.20301,-2.20302 2.20301,-2.20301 h 0.0674 0.0674 v 0.10254 0.10254 l -2.10254,2.10254 -2.10254,2.10254 -0.11132,-8.6e-4 c -0.0612,-4.8e-4 -0.13677,-10e-4 -0.16786,-0.002 z"
     id="path3818"
     inkscape:connector-curvature="0" />
  <path
     style="fill:#ffffff;stroke-width:0.00552427"
     d="m 359.23339,289.93474 3.61839,-3.6184 h 0.16849 0.16849 l -3.61839,3.6184 -3.6184,3.6184 h -0.16849 -0.16849 z"
     id="path3820"
     inkscape:connector-curvature="0" />
  <path
     style="fill:#ffffff;stroke-width:0.00390625"
     d="m 363.18119,285.9859 0.32812,-0.32813 10e-4,0.16694 10e-4,0.16694 -0.16116,0.16119 -0.16116,0.1612 h -0.16798 -0.16797 z"
     id="path3822"
     inkscape:connector-curvature="0" />
  <path
     style="fill:#ffffff;stroke-width:0.00552427"
     d="m 350.63762,298.53181 3.61839,-3.6184 h 0.16573 0.16573 l -3.6184,3.6184 -3.61839,3.61839 h -0.16573 -0.16573 z"
     id="path3824"
     inkscape:connector-curvature="0" />
  <path
     style="fill:#ffffff;stroke-width:0.00390625"
     d="m 346.25706,302.90859 0.7578,-0.75781 h 0.16992 0.16993 l -0.75781,0.75781 -0.7578,0.75781 h -0.16993 -0.16992 z"
     id="path3826"
     inkscape:connector-curvature="0" />
  <path
     style="fill:#ffffff;stroke-width:0.00552427"
     d="m 329.99611,319.17609 2.65441,-2.65442 0.001,0.13259 10e-4,0.13259 h 0.0189 c 0.0248,0 0.0495,-0.0208 0.20542,-0.17321 0.0673,-0.0658 0.12448,-0.11957 0.12706,-0.11957 0.003,0 -1.19601,1.2007 -2.66353,2.66822 -1.77507,1.77507 -2.67192,2.66822 -2.67927,2.66822 -0.007,0 0.73194,-0.74299 2.22881,-2.23986 1.23192,-1.23193 2.23872,-2.2409 2.23733,-2.24216 -10e-4,-0.001 -0.0622,-0.006 -0.13511,-0.0112 l -0.13259,-0.009 -2.25114,2.25111 c -1.23813,1.2381 -2.25487,2.2511 -2.25942,2.2511 -0.005,0 1.1862,-1.19449 2.64613,-2.65442 z"
     id="path3828"
     inkscape:connector-curvature="0" />
  <path
     style="fill:#ffffff;stroke-width:0.00552427"
     d="m 300.55922,348.61816 c 1.99012,-1.99012 3.62084,-3.61839 3.62383,-3.61839 0.003,0 -0.0237,0.0292 -0.0594,0.065 l -0.0648,0.065 v 0.14217 c 0,0.0782 0.002,0.14217 0.004,0.14217 0.002,0 0.0974,-0.0932 0.21127,-0.20716 0.13473,-0.13477 0.21098,-0.20716 0.21818,-0.20716 0.007,0 -1.1857,1.19677 -3.60732,3.61839 l -3.61839,3.6184 h -0.16297 -0.16297 z"
     id="path3830"
     inkscape:connector-curvature="0" />
  <path
     style="fill:#ffffff;stroke-width:0.0078125"
     d="m 284.69948,364.46762 c 1.87224,-1.87002 4.17751,-4.17275 5.12284,-5.11719 l 1.71877,-1.71716 h 0.16404 0.16403 l -5.11718,5.11718 -5.11718,5.11719 h -0.16969 -0.16969 z"
     id="path3832"
     inkscape:connector-curvature="0" />
  <path
     style="fill:#ffffff;stroke-width:0.015625"
     d="m 294.24633,354.93207 2.69331,-2.68673 h 0.15824 0.15823 l -2.68746,2.6875 -2.68747,2.6875 -0.16408,-7.7e-4 -0.16408,-7.7e-4 z"
     id="path3834"
     inkscape:connector-curvature="0" />
  <path
     style="fill:#ffffff;stroke-width:0.015625"
     d="m 280.93555,368.232 0.35912,-0.35938 h 0.16406 0.16406 l -0.35912,0.35938 -0.35912,0.35937 h -0.16406 -0.16406 z"
     id="path3836"
     inkscape:connector-curvature="0" />
  <path
     style="fill:#ffffff;stroke-width:0.01104854"
     d="m 266.6968,382.42469 0.70978,-0.70987 0.18455,0.003 0.18456,0.003 -0.70651,0.70657 -0.7065,0.70657 h -0.18783 -0.18783 z"
     id="path3838"
     inkscape:connector-curvature="0" />
  <path
     style="fill:#ffffff;stroke-width:0.0078125"
     d="m 420.26919,229.03655 v -0.19326 l 1.88035,-1.88486 c 1.0342,-1.03668 2.52941,-2.53526 3.32269,-3.33018 0.79329,-0.79492 2.10222,-2.10719 2.90875,-2.91615 l 1.46642,-1.47083 0.20309,0.002 0.20309,0.002 -4.9922,4.99218 -4.99219,4.99219 z"
     id="path3840"
     inkscape:connector-curvature="0" />
  <path
     style="fill:#ffffff;stroke-width:0.0078125"
     d="m 430.58705,218.49948 c 0.40534,-0.4077 1.91814,-1.92645 3.36177,-3.375 l 2.62479,-2.63372 h 0.21896 0.21896 l -3.375,3.375 -3.37499,3.375 h -0.20574 -0.20574 z"
     id="path3842"
     inkscape:connector-curvature="0" />
  <path
     style="fill:#ffffff;stroke-width:0.0078125"
     d="m 437.22618,211.83557 c 0.35879,-0.35986 1.46747,-1.47255 2.46374,-2.47265 l 1.81141,-1.81836 h 0.22737 0.22738 l -2.47265,2.47265 -2.47265,2.47266 h -0.21847 -0.21848 z"
     id="path3844"
     inkscape:connector-curvature="0" />
  <path
     style="fill:#ffffff;stroke-width:0.0078125"
     d="m 443.81934,205.2141 c 1.27493,-1.28053 2.31978,-2.32654 2.32187,-2.32444 0.002,0.002 -0.4458,0.45653 -0.99532,1.00986 -1.59301,1.60408 -1.89406,1.9085 -2.08822,2.11167 l -0.18284,0.19131 0.20223,0.002 0.20224,0.002 2.13686,-2.13685 c 1.17528,-1.17527 2.14038,-2.13686 2.14467,-2.13686 0.004,0 -1.2543,1.26211 -2.79688,2.80469 l -2.80468,2.80469 h -0.229 -0.229 z"
     id="path3846"
     inkscape:connector-curvature="0" />
  <path
     style="fill:#ffffff;stroke-width:0.0078125"
     d="m 410.3672,238.76464 c 2.44842,-2.45244 4.74712,-4.75517 5.10822,-5.11719 l 0.65656,-0.6582 h 0.19146 0.19147 l -5.11718,5.11719 -5.11718,5.11719 h -0.18251 -0.18251 z"
     id="path3848"
     inkscape:connector-curvature="0" />
  <path
     style="fill:#ffffff;stroke-width:0.00552427"
     d="m 416.3221,232.80042 c 0.10041,-0.10102 1.02947,-1.03259 2.06459,-2.07015 l 1.88203,-1.88647 v 0.19604 0.19605 l -1.87411,1.87411 -1.87412,1.8741 h -0.19047 -0.19047 z"
     id="path3850"
     inkscape:connector-curvature="0" />
  <path
     style="fill:#ffffff;stroke-width:0.0078125"
     d="m 404.67746,244.465 1.22862,-1.23438 h 0.18033 0.18033 l -1.23435,1.23438 -1.23436,1.23437 h -0.17459 -0.17459 z"
     id="path3852"
     inkscape:connector-curvature="0" />
  <path
     style="fill:#ffffff;stroke-width:0.00552427"
     d="m 386.15476,263.0044 3.61474,-3.6183 0.17401,-9e-5 0.17401,-10e-5 -3.61839,3.6184 -3.6184,3.6184 h -0.17035 -0.17035 z"
     id="path3854"
     inkscape:connector-curvature="0" />
  <path
     style="fill:#ffffff;stroke-width:0.01104854"
     d="m 392.33911,256.81968 2.55607,-2.56426 0.003,0.16918 0.003,0.16918 -2.39506,2.39509 -2.39506,2.39508 h -0.16407 -0.16407 z"
     id="path3856"
     inkscape:connector-curvature="0" />
  <path
     style="fill:#ffffff;stroke-width:0.01104854"
     d="m 354.93887,294.23148 0.67389,-0.67397 h 0.16573 0.16573 l -0.67389,0.67397 -0.6739,0.67396 h -0.16572 -0.16573 z"
     id="path3858"
     inkscape:connector-curvature="0" />
  <path
     style="fill:#ffffff;stroke-width:0.01104854"
     d="m 380.57185,268.64492 -0.049,-0.004 1.00464,-1.00468 1.00464,-1.00468 h 0.16573 0.16572 l -1.01089,1.01094 -1.0109,1.01094 -0.11051,-0.002 c -0.0608,-10e-4 -0.13254,-0.004 -0.15947,-0.006 z"
     id="path3860"
     inkscape:connector-curvature="0" />
</svg>
